<?xml version="1.0" encoding="UTF-8" standalone="no"?>
<!-- Created with Inkscape (http://www.inkscape.org/) -->

<svg
   xmlns:dc="http://purl.org/dc/elements/1.1/"
   xmlns:cc="http://creativecommons.org/ns#"
   xmlns:rdf="http://www.w3.org/1999/02/22-rdf-syntax-ns#"
   xmlns:svg="http://www.w3.org/2000/svg"
   xmlns="http://www.w3.org/2000/svg"
   xmlns:sodipodi="http://sodipodi.sourceforge.net/DTD/sodipodi-0.dtd"
   xmlns:inkscape="http://www.inkscape.org/namespaces/inkscape"
   width="42mm"
   height="32.144386mm"
   viewBox="0 0 41.999999 32.144386"
   version="1.1"
   id="svg8"
   inkscape:version="0.92.4 (5da689c313, 2019-01-14)"
   sodipodi:docname="lookoutitsaninjafavicon_01.svg">
  <defs
     id="defs2" />
  <sodipodi:namedview
     id="base"
     pagecolor="#ffffff"
     bordercolor="#666666"
     borderopacity="1.0"
     inkscape:pageopacity="0.0"
     inkscape:pageshadow="2"
     inkscape:zoom="1.337042"
     inkscape:cx="210.98234"
     inkscape:cy="-136.10873"
     inkscape:document-units="mm"
     inkscape:current-layer="layer1"
     showgrid="false"
     inkscape:snap-grids="true"
     inkscape:object-nodes="false"
     inkscape:window-width="1920"
     inkscape:window-height="1027"
     inkscape:window-x="-8"
     inkscape:window-y="22"
     inkscape:window-maximized="1" />
  <metadata
     id="metadata5">
    <rdf:RDF>
      <cc:Work
         rdf:about="">
        <dc:format>image/svg+xml</dc:format>
        <dc:type
           rdf:resource="http://purl.org/dc/dcmitype/StillImage" />
        <dc:title></dc:title>
      </cc:Work>
    </rdf:RDF>
  </metadata>
  <g
     inkscape:label="Layer 1"
     inkscape:groupmode="layer"
     id="layer1"
     transform="translate(-57.720231,-74.128327)">
    <circle
       style="opacity:1;fill:#a18cf9;fill-opacity:1;stroke:none;stroke-width:0.66665816;stroke-linecap:round;stroke-linejoin:round;stroke-miterlimit:4;stroke-dasharray:none;stroke-dashoffset:0;stroke-opacity:1"
       id="head"
       cx="73.805748"
       cy="90.186417"
       r="14.77778" />
    <path
       style="fill:none;stroke:#000000;stroke-width:1.3328656;stroke-linecap:butt;stroke-linejoin:miter;stroke-miterlimit:4;stroke-dasharray:none;stroke-opacity:1"
       d="M 59.016404,85.706513 H 88.236307"
       id="path817"
       inkscape:connector-curvature="0" />
    <path
       style="opacity:1;fill:none;fill-opacity:1;stroke:#000000;stroke-width:1.3328656;stroke-linecap:round;stroke-linejoin:round;stroke-miterlimit:4;stroke-dasharray:none;stroke-opacity:1"
       d="m 88.325366,86.062747 c -2.924331,9.585079 -8.459724,9.115054 -14.690008,9.115051 -6.231547,0 -10.058216,0.812405 -14.618954,-9.025992"
       id="path825"
       inkscape:connector-curvature="0"
       sodipodi:nodetypes="csc" />
    <path
       style="fill:none;stroke:#000000;stroke-width:1.3328656;stroke-linecap:round;stroke-linejoin:miter;stroke-miterlimit:4;stroke-dasharray:none;stroke-opacity:1"
       d="m 67.203015,87.469783 v 4.534122"
       id="eyeleft"
       inkscape:connector-curvature="0" />
    <path
       inkscape:connector-curvature="0"
       id="path840"
       d="m 80.301591,87.469783 v 4.534122"
       style="fill:none;stroke:#000000;stroke-width:1.3328656;stroke-linecap:round;stroke-linejoin:miter;stroke-miterlimit:4;stroke-dasharray:none;stroke-opacity:1"
       inkscape:label="#eyeleft" />
    <g
       id="g920"
       transform="matrix(0.33321639,0,0,0.33321639,38.486904,49.463282)">
      <path
         sodipodi:nodetypes="cssssc"
         inkscape:connector-curvature="0"
         id="path815"
         d="m 81.711866,83.066305 c 7.017614,-4.31549 15.278881,-6.804403 24.121464,-6.804403 25.46756,0 46.1131,20.645536 46.1131,46.113098 0,25.46756 -20.64554,46.1131 -46.1131,46.1131 -25.467562,0 -46.1131,-20.64554 -46.1131,-46.1131 0,-8.45214 2.273972,-16.37317 6.243497,-23.184665"
         style="opacity:1;fill:none;fill-opacity:1;stroke:#000000;stroke-width:4;stroke-linecap:round;stroke-linejoin:round;stroke-miterlimit:4;stroke-dasharray:none;stroke-dashoffset:0;stroke-opacity:1" />
      <path
         id="bandanna"
         transform="scale(0.26458333)"
         d="m 628.84961,289.3418 c 0,0 -132.07425,16.08818 -67.42188,94.60547 z m -22.38086,66.46875 c -23.08915,-0.0137 -42.86246,12.37777 -42.18359,55.28125 l 111.69336,-31.94922 c 0,0 -37.86908,-23.3132 -69.50977,-23.33203 z"
         style="fill:#a18cf9;fill-opacity:1;stroke:#000000;stroke-width:15.11811066;stroke-linecap:butt;stroke-linejoin:miter;stroke-miterlimit:4;stroke-dasharray:none;stroke-opacity:1"
         inkscape:connector-curvature="0" />
    </g>
    <path
       style="fill:none;stroke:#000000;stroke-width:1.3328656;stroke-linecap:round;stroke-linejoin:miter;stroke-miterlimit:4;stroke-dasharray:none;stroke-opacity:1"
       d="m 73.983799,89.072838 1.513995,2.180097 -1.513995,2.354024"
       id="path852"
       inkscape:connector-curvature="0"
       sodipodi:nodetypes="ccc" />
    <path
       style="opacity:1;fill:#ffffff;fill-opacity:1;stroke:none;stroke-width:0.0352449;stroke-linecap:round;stroke-linejoin:round;stroke-miterlimit:4;stroke-dasharray:none;stroke-dashoffset:0;stroke-opacity:1"
       d="m 69.461687,94.467892 c -1.587848,-0.0955 -2.687764,-0.355357 -3.766258,-0.88979 -0.787498,-0.390235 -1.339831,-0.799575 -2.101578,-1.557499 -1.175977,-1.170078 -2.129593,-2.556282 -3.247735,-4.721002 L 59.882504,86.402048 H 73.690952 87.4994 l -0.03274,0.104911 c -0.195826,0.627375 -0.724894,1.901588 -1.069621,2.576089 -1.586017,3.103229 -3.680124,4.671818 -6.900288,5.168647 -0.646954,0.09982 -0.798081,0.116652 -1.515347,0.168812 -0.80136,0.05828 -7.700628,0.09665 -8.519711,0.04738 z m 4.885423,-0.29131 c 0.107888,-0.07271 0.434423,-0.53788 1.055533,-1.503691 0.494625,-0.76913 0.899521,-1.414142 0.899768,-1.433361 7.93e-4,-0.06047 -1.757685,-2.570518 -1.883702,-2.688816 -0.08681,-0.0815 -0.189048,-0.118421 -0.369227,-0.133363 -0.453703,-0.03762 -0.730182,0.2154 -0.730516,0.668542 -1.76e-4,0.228061 0.02245,0.268537 0.67474,1.206957 0.371202,0.534041 0.660644,0.994358 0.643203,1.022929 -0.01744,0.02857 -0.321151,0.5027 -0.674914,1.053622 -0.602672,0.938555 -0.643203,1.016069 -0.643203,1.230088 0,0.41062 0.26821,0.679013 0.680839,0.681303 0.122738,7.06e-4 0.247234,-0.03666 0.347479,-0.10421 z m -6.770242,-1.607701 c 0.06474,-0.04834 0.160981,-0.145808 0.213854,-0.216594 0.09351,-0.125194 0.09654,-0.190553 0.110802,-2.398361 0.0081,-1.248313 7.06e-4,-2.384361 -0.01627,-2.524549 -0.02555,-0.210483 -0.06101,-0.284949 -0.20348,-0.427424 -0.225967,-0.225969 -0.450484,-0.271544 -0.744808,-0.15119 -0.171367,0.07008 -0.237346,0.130958 -0.32067,0.295897 -0.104734,0.207324 -0.104908,0.211647 -0.104908,2.60089 0,2.32394 0.0028,2.398667 0.09599,2.581371 0.173837,0.340748 0.670011,0.463556 0.969495,0.23996 z m 13.101925,0 c 0.06474,-0.04834 0.16098,-0.145807 0.213854,-0.216593 0.0936,-0.1253 0.09651,-0.189683 0.110231,-2.437488 0.01586,-2.597201 0.005,-2.725504 -0.249048,-2.94858 -0.08766,-0.07696 -0.234168,-0.153968 -0.325577,-0.171117 -0.228677,-0.0429 -0.551736,0.08658 -0.686131,0.274999 l -0.105498,0.147904 -0.01249,2.471181 c -0.01174,2.32408 -0.0074,2.480895 0.07339,2.634372 0.177238,0.33682 0.687761,0.464453 0.981265,0.245322 z"
       id="path912"
       inkscape:connector-curvature="0" />
  </g>
</svg>
